<svg id="Layer_1" data-name="Layer 1" xmlns="http://www.w3.org/2000/svg" viewBox="0 0 437.66 514.18"><defs><style>.cls-1{fill:#d7e8d2;}.cls-2,.cls-9{fill:#fdc9d1;}.cls-11,.cls-3,.cls-4,.cls-7,.cls-8{fill:none;}.cls-3,.cls-4{stroke:#ff3fb4;}.cls-10,.cls-11,.cls-3,.cls-4,.cls-7,.cls-8,.cls-9{stroke-miterlimit:10;}.cls-4,.cls-8{stroke-width:0.5px;}.cls-10,.cls-5{fill:#bfe1e6;}.cls-6{fill:#c4e2e6;}.cls-7,.cls-8{stroke:#3cd52e;}.cls-10,.cls-11,.cls-9{stroke:#0098ce;}</style></defs><title>icecream</title><path class="cls-1" d="M316.55,330.9s11.65,7.56,14.55,8.8c3.84,1.64,8.43-.86,11.67.32,2.58,0.93,5.83,6.84,7.57,8.77,4.83,5.33,23.95,13.18,31.08,14.82C367.64,361.61,322.84,345.12,316.55,330.9Z" transform="translate(-158.3 -18.65)"/><path class="cls-1" d="M327.06,377.17c3.64,0.13,10,4.62,13,6,6,2.74,14.82,11.08,18.67,12.17-5.84-1-21.07-8.51-26-11.88-5.84-4-6.41-2.72-13.27-3-2-.07-4.56-1.72-6.65-1.72V376.7C318.65,376.94,325.5,377.12,327.06,377.17Z" transform="translate(-158.3 -18.65)"/><path class="cls-2" d="M370.89,443.67c-11.58,4.61-23-14.7-35.11-16.67-5-.81-18.13,8.27-22.94,6.67-14.5-4.83-32.81-18-39.28-20-12.83-4-38.5,7.5-45-12.5-2.82-8.67-24.94,10.52-24.66-8.48a45.18,45.18,0,0,0-2.33-16c2.46-8.48,28.27-63.33,35-73.19,39-57.25,89.5-55.48,101.7-56.55,11.19-1,23-1.69,34.09-.63,83.88,8,129.55,52.07,137.55,140.07a8.36,8.36,0,0,1-2.9,2.92c-6.38,3.69-9.74,6-15.27,12-4,4.26-6.84,18.09-26.17,14.75-22.34-3.85-32,3.77-36,6.63-2.77,2-4.63,5.16-7.09,7.2-7.39,6.09-15.3.16-23.93-1C388.51,427.46,380.31,439.92,370.89,443.67Zm-38.12-60.21c4.89,3.37,20.12,10.83,26,11.88-3.85-1.09-12.69-9.43-18.67-12.17-3-1.38-9.36-5.87-13-6-1.56,0-8.41-.23-14.22-0.47-4-.15-7.47-0.34-8.45-0.53-13.8-2.68,1.4-2.4-21.16-6.67,3.12,2.42,20.4,13,24.43,12.77,0.64,0,2.42-3.11,4.67-3.46a3.11,3.11,0,0,1,.52,0c2.09,0,4.61,1.65,6.65,1.72C326.36,380.74,326.93,379.43,332.77,383.46Zm10-43.44c-3.24-1.18-7.83,1.32-11.67-.32-2.9-1.24-14.55-8.8-14.55-8.8,6.29,14.22,51.09,30.71,64.87,32.71-7.13-1.64-26.25-9.49-31.08-14.82C348.6,346.86,345.35,340.95,342.77,340Zm-13.83,24.15c4.48,2.32,5.68,6.09,10.48,8.19,1.85,0.81,7.29.74,10.14,1.74,4.16,1.46,8.2,3.57,12.25,5.34,7.74,3.37,10.48,7.33,14.5,13.81-2-7.93-10.1-28.1-23.08-21.18-11.56-10.1-21.59-12.29-35.65-16.27-10.16-2.87-19.42-.52-29.85-3,5.07,1.37,24.07,6.53,28.44,8C319.76,362,325.79,362.53,328.94,364.17Z" transform="translate(-158.3 -18.65)"/><path class="cls-1" d="M312.33,378.81c-2.25.35-4,3.42-4.67,3.46-4,.22-21.31-10.35-24.43-12.77,22.56,4.27,7.36,4,21.16,6.67,1,0.19,4.47.38,8.45,0.53v2.07A3.11,3.11,0,0,0,312.33,378.81Z" transform="translate(-158.3 -18.65)"/><path class="cls-1" d="M316.17,360.83c-4.37-1.49-23.37-6.65-28.44-8,10.43,2.47,19.69.12,29.85,3,14.06,4,24.09,6.17,35.65,16.27,13-6.92,21.12,13.25,23.08,21.18-4-6.48-6.76-10.44-14.5-13.81-4-1.77-8.09-3.88-12.25-5.34-2.85-1-8.29-.93-10.14-1.74-4.8-2.1-6-5.87-10.48-8.19C325.79,362.53,319.76,362,316.17,360.83Z" transform="translate(-158.3 -18.65)"/><path class="cls-2" d="M398.53,428.82c8.63,1.17,16.54,7.1,23.93,1,2.46-2,4.32-5.24,7.09-7.2,4.06-2.86,13.67-10.48,36-6.63,19.33,3.34,22.21-10.49,26.17-14.75,5.53-6,8.89-8.27,15.27-12a8.36,8.36,0,0,0,2.9-2.92c4.12-6.51,9.66-18.44,33-4.1,7.25,4.46,1,12.5,4.21,20.59,2.42,6.07,2.46,10.19,2.46,16.79,0,9.55.58,21.64-9.15,26.94-1.77,1-4.29.83-5.81,1.72-3.15,1.82-5.28,5.59-8,7.91-2.41,2-6.08,5.28-9.09,6.3-2.52.84-5.13,0.43-7.83,0.53-13.27.48-15.86,4.56-17.41,12.62-1.67,8.67,10.16,24.89,12.33,35.33,3.68,17.72.09,21.34-9,21.34-11.4,0-13-11.66-12.67-21,0.43-11.69,10.5-21.74,3.34-32-2.49-3.58-6.09-10.23-10.62-10.2-2.47,0-5.13,2.14-7.68,2.54-3.83.59-7.58-.55-11.24-1.47-8.79-2.23-15.8-4.37-24.69-2.48-8.09,1.71-31.37,7.08-35.19,7.9-7.69,1.66-14.82,5.45-22.25,7.36-8.15,2.11-16.47-1.18-23.9-3.83-9.77-3.49-19.53-2.75-28.73,1-28.76,11.79-40.19-28.8-68.63-18.43-12,4.37-17.9,4.36-29-3.11-3.64-2.44-6.75-5-10.91-6.47-3.12-1.11-6.54-.7-9.55-1.67-7.11-2.33-6.83-10.1-10.67-15.8s-2.16-1.6-16.73-4.9c-9.71-2.2-24.67-18.21-13.87-23.63,1-11.5-3-9.19-2.33-16.83,0.85-9.56,2.83-8.12,10.83-13.45,5-6.65,2.25-8.39,9-9.67,0,0,16.08-4.73,21.54,10.45a45.18,45.18,0,0,1,2.33,16c-0.28,19,21.84-.19,24.66,8.48,6.5,20,32.17,8.52,45,12.5,6.47,2,24.78,15.17,39.28,20,4.81,1.6,18-7.48,22.94-6.67,12.1,2,23.53,21.28,35.11,16.67C380.31,439.92,388.51,427.46,398.53,428.82Z" transform="translate(-158.3 -18.65)"/><line class="cls-3" x1="154.55" y1="360.11" x2="154.54" y2="358.04"/><path class="cls-3" d="M201.57,376.67c2.46-8.48,28.27-63.33,35-73.19,39-57.25,89.5-55.48,101.7-56.55,11.19-1,23-1.69,34.09-.63,83.88,8,129.55,52.07,137.55,140.07" transform="translate(-158.3 -18.65)"/><path class="cls-3" d="M201.57,376.67C196.11,361.49,180,366.22,180,366.22c-6.72,1.28-4,3-9,9.67-8,5.33-10,3.89-10.83,13.45-0.68,7.64,3.33,5.33,2.33,16.83-10.8,5.42,4.16,21.43,13.87,23.63,14.57,3.3,12.91-.77,16.73,4.9s3.56,13.47,10.67,15.8c3,1,6.43.56,9.55,1.67,4.16,1.49,7.27,4,10.91,6.47,11.11,7.47,17,7.48,29,3.11,28.44-10.37,39.87,30.22,68.63,18.43,9.2-3.77,19-4.51,28.73-1,7.43,2.65,15.75,5.94,23.9,3.83,7.43-1.91,14.56-5.7,22.25-7.36,3.82-.82,27.1-6.19,35.19-7.9,8.89-1.89,15.9.25,24.69,2.48,3.66,0.92,7.41,2.06,11.24,1.47,2.55-.4,5.21-2.53,7.68-2.54,4.53,0,8.13,6.62,10.62,10.2,7.16,10.26-2.91,20.31-3.34,32-0.33,9.34,1.27,21,12.67,21,9.09,0,12.68-3.62,9-21.34-2.17-10.44-14-26.66-12.33-35.33,1.55-8.06,4.14-12.14,17.41-12.62,2.7-.1,5.31.31,7.83-0.53,3-1,6.68-4.28,9.09-6.3,2.76-2.32,4.89-6.09,8-7.91,1.52-.89,4-0.75,5.81-1.72,9.73-5.3,9.15-17.39,9.15-26.94,0-6.6,0-10.72-2.46-16.79-3.23-8.09,3-16.13-4.21-20.59-23.33-14.34-28.87-2.41-33,4.1a8.36,8.36,0,0,1-2.9,2.92c-6.38,3.69-9.74,6-15.27,12-4,4.26-6.84,18.09-26.17,14.75-22.34-3.85-32,3.77-36,6.63-2.77,2-4.63,5.16-7.09,7.2-7.39,6.09-15.3.16-23.93-1-10-1.36-18.22,11.1-27.64,14.85-11.58,4.61-23-14.7-35.11-16.67-5-.81-18.13,8.27-22.94,6.67-14.5-4.83-32.81-18-39.28-20-12.83-4-38.5,7.5-45-12.5-2.82-8.67-24.94,10.52-24.66-8.48A45.18,45.18,0,0,0,201.57,376.67Z" transform="translate(-158.3 -18.65)"/><path class="cls-4" d="M312.85,378.77a3.11,3.11,0,0,0-.52,0c-2.25.35-4,3.42-4.67,3.46-4,.22-21.31-10.35-24.43-12.77,22.56,4.27,7.36,4,21.16,6.67,1,0.19,4.47.38,8.45,0.53,5.81,0.24,12.66.42,14.22,0.47,3.64,0.13,10,4.62,13,6,6,2.74,14.82,11.08,18.67,12.17-5.84-1-21.07-8.51-26-11.88-5.84-4-6.41-2.72-13.27-3C317.46,380.42,314.94,378.77,312.85,378.77Z" transform="translate(-158.3 -18.65)"/><path class="cls-4" d="M286.48,352.48h0l0.08,0,0.33,0.09" transform="translate(-158.3 -18.65)"/><path class="cls-4" d="M287.31,352.7l-0.4-.1" transform="translate(-158.3 -18.65)"/><path class="cls-4" d="M287.31,352.7l0.19,0" transform="translate(-158.3 -18.65)"/><path class="cls-4" d="M317.58,355.8c-10.16-2.87-19.42-.52-29.85-3,5.07,1.37,24.07,6.53,28.44,8,3.59,1.22,9.62,1.7,12.77,3.34,4.48,2.32,5.68,6.09,10.48,8.19,1.85,0.81,7.29.74,10.14,1.74,4.16,1.46,8.2,3.57,12.25,5.34,7.74,3.37,10.48,7.33,14.5,13.81-2-7.93-10.1-28.1-23.08-21.18C341.67,362,331.64,359.78,317.58,355.8Z" transform="translate(-158.3 -18.65)"/><path class="cls-4" d="M287.73,352.81l-0.23-.06" transform="translate(-158.3 -18.65)"/><path class="cls-4" d="M342.77,340c2.58,0.93,5.83,6.84,7.57,8.77,4.83,5.33,23.95,13.18,31.08,14.82-13.78-2-58.58-18.49-64.87-32.71,0,0,11.65,7.56,14.55,8.8C334.94,341.34,339.53,338.84,342.77,340Z" transform="translate(-158.3 -18.65)"/><g id="_Group_" data-name="&lt;Group&gt;"><path class="cls-5" d="M375.94,221.63c2.14,1.28,4,7.12,5.25,9.15,3.4,5.59,19.14,15.89,25.23,18.59-12-4.17-49.17-26.6-52.35-40.4,0,0,9.11,8.76,11.49,10.37C368.71,221.47,373.24,220,375.94,221.63Z" transform="translate(-158.3 -18.65)"/><path class="cls-5" d="M366.09,259.74c4.87,3.47,11.34,12.45,14.59,14.09-5-1.95-17.37-11.24-21.16-15.09-4.52-4.61-5.26-3.53-11.34-4.93-1.81-.41-3.78-2.33-5.65-2.69l0.35-1.85c5.15,1.22,11.25,2.55,12.64,2.87C358.73,252.88,363.62,258,366.09,259.74Z" transform="translate(-158.3 -18.65)"/><path class="cls-1" d="M354.71,298.17c-4.31-1.58-17.63,4.28-21.65,2-12.12-6.8-26.23-21.72-31.67-24.63-10.78-5.76-35.7.07-38.07-18.92-1-8.23-24.1,5.12-20.58-11.82a41.31,41.31,0,0,0,.67-14.72c3.66-7.16,36.16-51.74,43.87-59.39,44.7-44.46,89.54-34.19,100.62-33,10.17,1.05,20.89,2.45,30.58,5.3,73.58,21.62,106.82,68.83,98.83,148.86a7.64,7.64,0,0,1-3.09,2.11c-6.33,2.2-9.73,3.7-15.7,8.06-4.28,3.13-9.23,15-25.93,8.68-19.31-7.29-29.21-2.13-33.33-.27-2.81,1.28-5,3.82-7.57,5.22-7.66,4.17-13.71-2.5-21.21-5-8.72-2.94-18.2,6.78-27.26,8.51C372.09,321.24,365.2,302,354.71,298.17Zm31.46-38c6.33,4.35,8.1,8.35,10.58,14.84-0.38-7.43-4.19-26.85-17-22.9-8.6-11-17.18-14.69-29.07-20.67-8.59-4.32-17.27-3.81-26.17-7.81,4.29,2.09,20.39,10,24,12.05,3,1.72,8.3,3.18,10.84,5.18,3.61,2.85,4,6.43,8,9.13,1.51,1,6.38,1.91,8.76,3.3C379.6,255.28,382.85,257.86,386.17,260.14Zm-43.65-9c1.88,0.36,3.84,2.28,5.65,2.69,6.08,1.41,6.82.33,11.34,4.93,3.79,3.86,16.13,13.15,21.16,15.09-3.25-1.64-9.72-10.62-14.59-14.09-2.46-1.76-7.36-6.85-10.58-7.6-1.38-.32-7.48-1.65-12.64-2.87-3.53-.82-6.61-1.59-7.46-1.92-11.87-4.77,1.67-1.91-17.77-9.6,2.37,2.7,16,15.12,19.64,15.61,0.58,0.07,2.7-2.36,4.77-2.29A2.5,2.5,0,0,1,342.52,251.12ZM354.07,209c3.18,13.8,40.38,36.24,52.35,40.4-6.09-2.7-21.83-13-25.23-18.59-1.22-2-3.11-7.87-5.25-9.15-2.69-1.61-7.23-.16-10.38-2.29C363.17,217.73,354.07,209,354.07,209Z" transform="translate(-158.3 -18.65)"/><path class="cls-5" d="M348.58,235.65c-3.65-2.08-19.75-10-24-12.05,8.9,4,17.58,3.49,26.17,7.81,11.88,6,20.46,9.65,29.07,20.67,12.79-3.94,16.59,15.48,17,22.9-2.48-6.49-4.24-10.49-10.58-14.84-3.32-2.28-6.57-4.86-10-6.88-2.38-1.38-7.25-2.25-8.76-3.3-3.93-2.7-4.35-6.28-8-9.13C356.88,238.83,351.57,237.37,348.58,235.65Z" transform="translate(-158.3 -18.65)"/><path class="cls-6" d="M335.4,247.34c0.85,0.34,3.93,1.1,7.46,1.92l-0.35,1.85a2.5,2.5,0,0,0-.47,0c-2.07-.07-4.19,2.36-4.77,2.29-3.64-.5-17.27-12.92-19.64-15.61C337.08,245.44,323.53,242.57,335.4,247.34Z" transform="translate(-158.3 -18.65)"/><path class="cls-1" d="M301.4,275.56c5.44,2.91,19.54,17.83,31.67,24.63,4,2.26,17.34-3.6,21.65-2,10.48,3.84,17.37,23.07,28.52,20.94,9.06-1.73,18.54-11.45,27.26-8.51,7.51,2.53,13.56,9.19,21.21,5,2.55-1.4,4.76-3.94,7.57-5.22,4.12-1.86,14-7,33.33.27,16.7,6.31,21.65-5.56,25.93-8.68,6-4.36,9.37-5.86,15.7-8.06a7.64,7.64,0,0,0,3.09-2.11c4.8-5.1,11.81-14.81,30.19,2,5.71,5.23-1.28,11.34.22,19.13,1.12,5.84.45,9.53-.69,15.43-1.64,8.53-3.21,19.44-12.82,22.5-1.75.56-4,0-5.49,0.54-3.12,1.08-5.67,4.08-8.54,5.69-2.51,1.38-6.35,3.67-9.21,4.06-2.39.32-7.9,1.5-10.32,1.12-11.95-1.85-14.5-6.89-18.55-7.64-2.21-.41-14.64,6.27-17,6.19-3.52-.13-6.68-1.79-9.79-3.25-7.47-3.51-13.37-6.63-21.64-6.47-7.52.14-29.25,0.94-32.81,1-7.16.16-14.18,2.32-21.15,2.75-7.65.48-14.52-3.88-20.7-7.53a35.7,35.7,0,0,0-25.85-4c-27.74,5.59-31-32.65-58.17-28.28-11.48,1.84-16.75.82-25.39-7.77-2.84-2.81-5.18-5.61-8.64-7.66-2.6-1.53-5.72-1.75-8.25-3.14-6-3.31-4.37-10.2-6.83-16s-1.65-1.8-14.1-7.26c-8.3-3.63-18.92-20.52-8.34-23.51,2.87-10.1-1.11-8.73.81-15.44,2.41-8.4,3.93-6.77,12-10.16,5.61-5.08,3.46-7.1,9.68-7.1,0,0,15.19-1.46,17.46,13a41.31,41.31,0,0,1-.67,14.72c-3.53,16.94,19.55,3.59,20.58,11.82C265.7,275.63,290.62,269.79,301.4,275.56Z" transform="translate(-158.3 -18.65)"/><line class="cls-7" x1="184.22" y1="232.46" x2="184.56" y2="230.61"/><path class="cls-7" d="M243.43,230.1c3.66-7.16,36.16-51.74,43.87-59.39,44.7-44.46,89.54-34.19,100.62-33,10.17,1.05,20.89,2.45,30.58,5.3,73.58,21.62,106.82,68.83,98.83,148.86" transform="translate(-158.3 -18.65)"/><path class="cls-7" d="M243.43,230.1c-2.27-14.5-17.46-13-17.46-13-6.22,0-4.06,2-9.68,7.1-8.07,3.39-9.59,1.76-12,10.16-1.92,6.72,2.06,5.35-.81,15.44-10.59,3,0,19.88,8.34,23.51,12.45,5.45,11.67,1.53,14.1,7.26s0.86,12.65,6.83,16c2.52,1.38,5.65,1.61,8.25,3.14,3.45,2,5.8,4.85,8.64,7.66,8.64,8.59,13.91,9.61,25.39,7.77,27.21-4.37,30.44,33.86,58.17,28.28a35.7,35.7,0,0,1,25.85,4c6.18,3.64,13.05,8,20.7,7.53,7-.43,14-2.59,21.15-2.75,3.56-.07,25.29-0.86,32.81-1,8.27-.16,14.17,3,21.64,6.47,3.11,1.45,6.27,3.12,9.79,3.25,2.35,0.08,14.78-6.61,17-6.19,4.05,0.75,6.6,5.79,18.55,7.64,2.42,0.38,7.92-.8,10.32-1.12,2.87-.4,6.71-2.68,9.21-4.06,2.87-1.61,5.42-4.61,8.54-5.69,1.52-.53,3.74,0,5.49-0.54,9.6-3.06,11.17-14,12.82-22.5,1.14-5.9,1.81-9.59.69-15.43-1.5-7.78,5.5-13.89-.22-19.13-18.38-16.83-25.39-7.12-30.19-2a7.64,7.64,0,0,1-3.09,2.11c-6.33,2.2-9.73,3.7-15.7,8.06-4.28,3.13-9.23,15-25.93,8.68-19.31-7.29-29.21-2.13-33.33-.27-2.81,1.28-5,3.82-7.57,5.22-7.66,4.17-13.71-2.5-21.21-5-8.72-2.94-18.2,6.78-27.26,8.51-11.14,2.13-18-17.1-28.52-20.94-4.31-1.58-17.63,4.28-21.65,2-12.12-6.8-26.23-21.72-31.67-24.63-10.78-5.76-35.7.07-38.07-18.92-1-8.23-24.1,5.12-20.58-11.82A41.31,41.31,0,0,0,243.43,230.1Z" transform="translate(-158.3 -18.65)"/><path class="cls-8" d="M342.52,251.12a2.5,2.5,0,0,0-.47,0c-2.07-.07-4.19,2.36-4.77,2.29-3.64-.5-17.27-12.92-19.64-15.61,19.44,7.69,5.89,4.83,17.77,9.6,0.85,0.34,3.93,1.1,7.46,1.92,5.15,1.22,11.25,2.55,12.64,2.87,3.23,0.74,8.12,5.84,10.58,7.6,4.87,3.47,11.34,12.45,14.59,14.09-5-1.95-17.37-11.24-21.16-15.09-4.52-4.61-5.26-3.53-11.34-4.93C346.36,253.39,344.4,251.48,342.52,251.12Z" transform="translate(-158.3 -18.65)"/><path class="cls-8" d="M323.48,223.08h0l0.07,0,0.28,0.14" transform="translate(-158.3 -18.65)"/><path class="cls-8" d="M324.18,223.43l-0.34-.17" transform="translate(-158.3 -18.65)"/><path class="cls-8" d="M324.18,223.43l0.16,0.07" transform="translate(-158.3 -18.65)"/><path class="cls-8" d="M324.54,223.6c4.29,2.09,20.39,10,24,12.05,3,1.72,8.3,3.18,10.84,5.18,3.61,2.85,4,6.43,8,9.13,1.51,1,6.38,1.91,8.76,3.3,3.46,2,6.71,4.6,10,6.88,6.33,4.35,8.1,8.35,10.58,14.84-0.38-7.43-4.19-26.85-17-22.9-8.6-11-17.18-14.69-29.07-20.67C342.12,227.09,333.43,227.6,324.54,223.6Z" transform="translate(-158.3 -18.65)"/><path class="cls-8" d="M324.54,223.6l-0.19-.1" transform="translate(-158.3 -18.65)"/><path class="cls-8" d="M365.55,219.34c3.15,2.13,7.69.69,10.38,2.29,2.14,1.28,4,7.12,5.25,9.15,3.4,5.59,19.14,15.89,25.23,18.59-12-4.17-49.17-26.6-52.35-40.4C354.07,209,363.17,217.73,365.55,219.34Z" transform="translate(-158.3 -18.65)"/></g><g id="_Group_2" data-name="&lt;Group&gt;"><path class="cls-9" d="M407,124.82c-1.94-.44-4.36,1.47-4.9,1.3-3.33-1.12-13.94-15.26-15.68-18.22,16.91,10.73,4.67,5.6,15,12.22,0.74,0.47,3.5,1.75,6.67,3.15,4.63,2.07,10.13,4.43,11.38,5,2.9,1.28,6.59,7,8.6,9.05,4,4.14,8.44,13.75,11.2,15.88-4.38-2.74-14.32-13.69-17.2-18-3.44-5.14-4.32-4.25-9.79-6.67-1.64-.71-3.14-2.87-4.83-3.54A2.07,2.07,0,0,0,407,124.82Z" transform="translate(-158.3 -18.65)"/><path class="cls-9" d="M442.3,132.54c12.74-1.42,12.84,17.54,11.87,24.6-1.16-6.55-2.11-10.63-7.29-15.86-2.72-2.75-5.32-5.76-8.21-8.28-2-1.73-6.43-3.42-7.65-4.67-3.22-3.25-3-6.69-5.85-10-2-2.34-6.77-4.66-9.28-6.82-3.06-2.61-16.8-12.92-20.47-15.66,7.65,5.35,15.92,6.44,23.23,12C428.76,115.62,436.18,120.63,442.3,132.54Z" transform="translate(-158.3 -18.65)"/><path class="cls-9" d="M447.45,112.74c2.2,5.87,15.16,18.4,20.41,22-10.51-6.07-41.51-33.86-42-47.42,0,0,7,9.88,9,11.82,2.59,2.58,7.12,2,9.37,4C445.94,104.78,446.67,110.61,447.45,112.74Z" transform="translate(-158.3 -18.65)"/><path class="cls-10" d="M410.27,172.69c9.45,5,13.51,24.15,24.37,23.57,8.82-.47,19.08-8.48,27-4.55,6.8,3.37,11.68,10.48,19.49,7.51,2.61-1,5-3.12,7.87-4,4.15-1.23,14.22-4.85,31.61,4.58,15,8.15,21.27-2.48,25.74-4.89a47.85,47.85,0,0,1,15.94-5.62,7.26,7.26,0,0,0,3.21-1.61c5.22-4.23,13.14-12.53,28.41,5.82,4.75,5.71-2.68,10.61-2.27,18.19,0.31,5.69-3.37,8.85-2.65,14.56,2.25,17.81-22.14-5-20.92,19.88,0.05,1,7.85,28.69,19.41,42.34,9.29,11,4,25.78-4.24,26.16-6.19.3-18-10.54-14.64-24,4.7-18.6-.63-41.38-12.72-48.54-2.36-1.4-17.74,6-20,5.31-11.1-3.3-8.2-3.38-12-4.61-2-.68-14.7,4.06-16.93,3.68-3.32-.58-6.11-2.57-8.87-4.35-6.64-4.29-11.83-8-19.71-8.95-7.15-.84-27.89-2.89-31.28-3.29-6.81-.77-13.77.37-20.43-0.12-7.33-.53-13.29-5.57-18.68-9.82a34.19,34.19,0,0,0-24-7.18c-27,1.71-25.17-35-51.56-34.37-11.13.27-16-1.39-23.1-10.66-2.34-3-4.2-6-7.21-8.38-2.27-1.79-5.2-2.4-7.42-4-5.23-3.92-2.83-10.25-4.42-16s-1.33-1.92-12.44-8.71c-7.41-4.53-15.31-21.92-4.87-23.4,4-9.22.07-8.43,2.77-14.56,3.38-7.66,4.61-5.91,12.7-8.08,6-4.1,4.2-6.29,10.1-5.49,0,0,14.61.58,14.89,14.65a39.63,39.63,0,0,1-2.54,13.88c-5.55,15.62,18.09,5.94,18,13.89-0.2,18.33,24.21,16,33.69,22.89,4.79,3.47,16.25,19.45,26.88,27.48C393,174.47,406.38,170.63,410.27,172.69Z" transform="translate(-158.3 -18.65)"/><path class="cls-10" d="M490.89,33.59c67.06,30,92.52,79.18,74.57,154.11a7.26,7.26,0,0,1-3.21,1.61,47.85,47.85,0,0,0-15.94,5.62c-4.47,2.42-10.71,13-25.74,4.89-17.39-9.43-27.46-5.81-31.61-4.58-2.83.86-5.25,3-7.87,4-7.8,3-12.69-4.14-19.49-7.51-7.9-3.92-18.16,4.09-27,4.55-10.86.58-14.91-18.56-24.37-23.57-3.88-2.06-17.29,1.78-20.81-.88-10.63-8-22.09-24-26.88-27.48-9.48-6.86-33.9-4.55-33.69-22.89,0.1-7.95-23.55,1.73-18-13.89a39.63,39.63,0,0,0,2.54-13.88c4.4-6.33,41-44.44,49.33-50.71,48.19-36.43,89.44-20.88,99.81-18.35C472.06,26.92,482.07,29.64,490.89,33.59Zm-23,101.19c-5.25-3.63-18.22-16.16-20.41-22-0.78-2.13-1.51-8-3.29-9.54-2.25-2-6.79-1.45-9.37-4-1.95-1.94-9-11.82-9-11.82C426.36,100.91,457.35,128.7,467.87,134.77Zm-13.69,22.37c1-7.06.87-26-11.87-24.6-6.12-11.9-13.54-16.91-23.65-24.66-7.31-5.61-15.57-6.69-23.23-12,3.66,2.74,17.41,13,20.47,15.66,2.51,2.15,7.24,4.48,9.28,6.82,2.87,3.34,2.63,6.78,5.85,10,1.22,1.25,5.66,2.94,7.65,4.67,2.89,2.52,5.49,5.53,8.21,8.28C452.07,146.51,453,150.59,454.17,157.14Zm-14.92-4c-2.75-2.13-7.24-11.74-11.2-15.88-2-2.1-5.7-7.77-8.6-9.05-1.25-.54-6.75-2.89-11.38-5-3.17-1.4-5.93-2.68-6.67-3.15-10.32-6.62,1.91-1.5-15-12.22,1.74,3,12.35,17.1,15.68,18.22,0.54,0.17,3-1.74,4.9-1.3a2.07,2.07,0,0,1,.44.14c1.69,0.68,3.2,2.83,4.83,3.54,5.47,2.41,6.36,1.53,9.79,6.67C424.93,139.48,434.87,150.44,439.25,153.18Z" transform="translate(-158.3 -18.65)"/><path class="cls-11" d="M313.42,93.67c4.4-6.33,41-44.44,49.33-50.71,48.19-36.43,89.44-20.88,99.81-18.35,9.51,2.32,19.51,5,28.34,9,67.06,30,92.52,79.18,74.57,154.11" transform="translate(-158.3 -18.65)"/><path class="cls-11" d="M313.42,93.67C313.14,79.6,298.53,79,298.53,79c-5.91-.81-4.12,1.39-10.1,5.49-8.09,2.17-9.32.43-12.7,8.08C273,98.73,277,97.94,273,107.16c-10.44,1.47-2.54,18.87,4.87,23.4,11.11,6.79,10.88,3,12.44,8.71s-0.81,12.12,4.42,16c2.22,1.64,5.15,2.26,7.42,4,3,2.4,4.88,5.36,7.21,8.38,7.09,9.27,12,10.93,23.1,10.66,26.39-.63,24.52,36.09,51.56,34.37A34.19,34.19,0,0,1,408,220c5.4,4.26,11.35,9.29,18.68,9.82,6.66,0.49,13.62-.65,20.43.12,3.39,0.4,24.13,2.45,31.28,3.29,7.88,0.92,13.07,4.65,19.71,8.95,2.77,1.78,5.55,3.77,8.87,4.35,2.22,0.38,14.88-4.36,16.93-3.68,3.75,1.24.85,1.31,12,4.61,2.24,0.67,17.62-6.71,20-5.31,12.09,7.15,17.41,29.93,12.72,48.54-3.4,13.47,8.46,24.3,14.64,24,8.19-.38,13.53-15.2,4.24-26.16-11.56-13.65-19.36-41.32-19.41-42.34-1.23-24.85,23.17-2.07,20.92-19.88-0.72-5.71,3-8.87,2.65-14.56-0.41-7.58,7-12.48,2.27-18.19-15.27-18.35-23.18-10-28.41-5.82a7.26,7.26,0,0,1-3.21,1.61,47.85,47.85,0,0,0-15.94,5.62c-4.47,2.42-10.71,13-25.74,4.89-17.39-9.43-27.46-5.81-31.61-4.58-2.83.86-5.25,3-7.87,4-7.8,3-12.69-4.14-19.49-7.51-7.9-3.92-18.16,4.09-27,4.55-10.86.58-14.91-18.56-24.37-23.57-3.88-2.06-17.29,1.78-20.81-.88-10.63-8-22.09-24-26.88-27.48-9.48-6.86-33.9-4.55-33.69-22.89,0.1-7.95-23.55,1.73-18-13.89A39.63,39.63,0,0,0,313.42,93.67Z" transform="translate(-158.3 -18.65)"/></g></svg>