<svg id="Layer_1" data-name="Layer 1" xmlns="http://www.w3.org/2000/svg" viewBox="0 0 60.45 14"><defs><style>.cls-1{fill:none;stroke:#000;stroke-miterlimit:10;}</style></defs><title>squiggle</title><path class="cls-1" d="M2.27,47.42a0.5,0.5,0,0,0,.49.51H17.22A4.71,4.71,0,0,0,21,45.68a21.44,21.44,0,0,0,2.31-4.56,41.33,41.33,0,0,1,1.94-4.41,5.29,5.29,0,0,1,1-1.34,1.46,1.46,0,0,1,1-.44,2.62,2.62,0,0,1,2,1.38A19.09,19.09,0,0,1,31,39.65a27,27,0,0,0,1.72,3.5,3.14,3.14,0,0,0,2.5,1.78A2.88,2.88,0,0,0,37.41,44a6.13,6.13,0,0,0,1-1.84,9.14,9.14,0,0,1,.78-1.62,1.11,1.11,0,0,1,1-.59,0.62,0.62,0,0,1,.47.22,2.6,2.6,0,0,1,.53.75c0.34,0.69.64,1.7,1,2.72a8.77,8.77,0,0,0,1.66,2.91,4.39,4.39,0,0,0,3.31,1.41h14a0.5,0.5,0,0,0,.51-0.49" transform="translate(-1.77 -34.43)"/></svg>