<svg id="Layer_1" data-name="Layer 1" xmlns="http://www.w3.org/2000/svg" viewBox="0 0 1057.48 397.23">
  <defs>
    <style>
      .cls-1, .cls-2 {
        fill: none;
        stroke: #fff;
        stroke-miterlimit: 10;
      }

      .cls-1 {
        stroke-width: 8px;
      }
    </style>
  </defs>
  <title>squiggleNewText</title>
  <path class="cls-1" d="M83.36,523.08C515.51,523.87,349.72,332.27,415.18,256c40.74-47.47,24.18,235.28,103,235.28,57.08,0,62.14-158.51,93.23-164.34,32-6,15.55,137,51.5,139.33,67.21,4.33,41.78-226.78,70-249.13,48.92-38.8,39.75,260,89.72,257.84,46.15-2,10.87-81.54,45.92-86.7,35.37-5.2-3.79,147.85,272.08,134.81" transform="translate(-83.35 -209.65)"/>
  <g>
    <path class="cls-2" d="M501.83,567.22l-3.64,29.69h-3.88L498,567.22h3.87Z" transform="translate(-83.35 -209.65)"/>
    <path class="cls-2" d="M509.53,580.35l-2,16.56h-3.88l2-16.56h3.88Zm1.21-7.87a2,2,0,0,1-.62,1.46,2,2,0,0,1-1.48.62,2,2,0,0,1-1.49-.63,2.19,2.19,0,0,1-.62-1.53,2.07,2.07,0,0,1,2.06-2.07A2.22,2.22,0,0,1,510.75,572.48Z" transform="translate(-83.35 -209.65)"/>
    <path class="cls-2" d="M524.83,582.18l-2.2,2.2a4.48,4.48,0,0,0-2.87-1.39,2.21,2.21,0,0,0-1.49.5,1.56,1.56,0,0,0-.59,1.24,1.65,1.65,0,0,0,.49,1.21,9.66,9.66,0,0,0,2.06,1.37,9.51,9.51,0,0,1,3,2.29,4.14,4.14,0,0,1,.81,2.65A4.76,4.76,0,0,1,522.4,596a6.51,6.51,0,0,1-4.34,1.41,7.2,7.2,0,0,1-6-3.29l2.55-1.78a4.4,4.4,0,0,0,3.34,1.88,2.36,2.36,0,0,0,1.61-.53,1.73,1.73,0,0,0,.61-1.37,1.53,1.53,0,0,0-.51-1.2,7.18,7.18,0,0,0-.86-0.63q-0.62-.4-1.67-1a8,8,0,0,1-2.58-2,4.33,4.33,0,0,1-.72-2.53,4.78,4.78,0,0,1,1.65-3.73,6.07,6.07,0,0,1,4.2-1.48A7.22,7.22,0,0,1,524.83,582.18Z" transform="translate(-83.35 -209.65)"/>
    <path class="cls-2" d="M533.72,584l-1.6,13h-3.88l1.6-13h-2.2l0.44-3.6h2.2l0.95-7.68h3.88l-0.95,7.68h3.59l-0.44,3.6h-3.59Z" transform="translate(-83.35 -209.65)"/>
    <path class="cls-2" d="M543.16,590a3.92,3.92,0,0,0,1.27,3,4.65,4.65,0,0,0,3.27,1.18,4.83,4.83,0,0,0,4.18-2l2.9,1.6a9.25,9.25,0,0,1-3.11,2.85,8.84,8.84,0,0,1-4,.83,8.33,8.33,0,0,1-6.13-2.27,8.16,8.16,0,0,1-2.29-6.06,9.32,9.32,0,0,1,2.51-6.64,8.29,8.29,0,0,1,6.31-2.65,7.39,7.39,0,0,1,5.82,2.39,9.3,9.3,0,0,1,2.16,6.45q0,0.42-.05,1.37h-12.8Zm8.91-3.13q-0.62-3.83-4.24-3.83-3.43,0-4.46,3.83h8.7Z" transform="translate(-83.35 -209.65)"/>
    <path class="cls-2" d="M565.29,580.35l-0.18,1.53a7.24,7.24,0,0,1,4.66-1.93,5.48,5.48,0,0,1,3.88,1.35,4.85,4.85,0,0,1,1.42,3.69,25.91,25.91,0,0,1-.21,3l-1.11,8.89H569.9l1.2-9.74q0.07-.54.1-1t0-.76q0-2.25-2.43-2.25a3.83,3.83,0,0,0-2.57.91,4.37,4.37,0,0,0-1.3,1.76,6.69,6.69,0,0,0-.39,1.29q-0.16.76-.28,1.77l-1,8h-3.88l2-16.56h3.87Z" transform="translate(-83.35 -209.65)"/>
    <path class="cls-2" d="M604.58,582l-0.49,4a9.14,9.14,0,0,0-2.29-2.2,4.79,4.79,0,0,0-2.53-.65,4.61,4.61,0,0,0-3.64,1.63,6.16,6.16,0,0,0-1.42,4.2,5.44,5.44,0,0,0,1.34,3.85,4.55,4.55,0,0,0,3.5,1.46,6.85,6.85,0,0,0,4.25-1.78l-0.51,4.1a11.4,11.4,0,0,1-4.29.91,7.86,7.86,0,0,1-5.92-2.37,8.54,8.54,0,0,1-2.27-6.15,9.11,9.11,0,0,1,2.44-6.49,8.05,8.05,0,0,1,6.12-2.62A9.11,9.11,0,0,1,604.58,582Z" transform="translate(-83.35 -209.65)"/>
    <path class="cls-2" d="M625.09,580.35l-2,16.56h-3.88l0.23-1.79a7.81,7.81,0,0,1-5.17,2.18,7,7,0,0,1-5.36-2.23,8.16,8.16,0,0,1-2.07-5.78,9.62,9.62,0,0,1,2.37-6.71,8,8,0,0,1,6.17-2.62,7.14,7.14,0,0,1,3,.58,8.45,8.45,0,0,1,2.58,2l0.26-2.18h3.88Zm-4.73,7.8a5.05,5.05,0,0,0-1.27-3.57,4.22,4.22,0,0,0-3.27-1.39,4.65,4.65,0,0,0-3.66,1.71,6.26,6.26,0,0,0-1.48,4.22,5.18,5.18,0,0,0,1.23,3.57,4,4,0,0,0,3.16,1.39,4.83,4.83,0,0,0,3.71-1.74A6.12,6.12,0,0,0,620.36,588.16Z" transform="translate(-83.35 -209.65)"/>
    <path class="cls-2" d="M634.41,580.35l-0.18,1.42a5.83,5.83,0,0,1,4-1.86,4.7,4.7,0,0,1,3.2,1.28l-2.48,3.2a3.32,3.32,0,0,0-2.14-.91,2.8,2.8,0,0,0-1.3.29,2.62,2.62,0,0,0-1,.91,5.65,5.65,0,0,0-.69,1.61,15.69,15.69,0,0,0-.43,2.36l-1,8.26h-3.88l2-16.56h3.88Z" transform="translate(-83.35 -209.65)"/>
    <path class="cls-2" d="M646,590a3.92,3.92,0,0,0,1.27,3,4.65,4.65,0,0,0,3.27,1.18,4.83,4.83,0,0,0,4.18-2l2.9,1.6a9.25,9.25,0,0,1-3.11,2.85,8.84,8.84,0,0,1-4,.83,8.33,8.33,0,0,1-6.13-2.27,8.16,8.16,0,0,1-2.29-6.06,9.32,9.32,0,0,1,2.51-6.64,8.29,8.29,0,0,1,6.31-2.65,7.39,7.39,0,0,1,5.82,2.39,9.3,9.3,0,0,1,2.16,6.45q0,0.42-.05,1.37H646Zm8.91-3.13q-0.62-3.83-4.24-3.83-3.43,0-4.46,3.83h8.7Z" transform="translate(-83.35 -209.65)"/>
    <path class="cls-2" d="M668,584l-1.58,13H662.5l1.6-13h-2.53l0.44-3.6h2.53l0.91-7.4a7.8,7.8,0,0,1,1.6-4.34,4.55,4.55,0,0,1,3.57-1.39,7.86,7.86,0,0,1,3.29.9l-0.42,3.41a3.31,3.31,0,0,0-2-.88,1.79,1.79,0,0,0-1.56.72,6.81,6.81,0,0,0-.72,2.65l-0.77,6.33h3.52L671.5,584H668Z" transform="translate(-83.35 -209.65)"/>
    <path class="cls-2" d="M689.59,580.35L688.41,590a19.51,19.51,0,0,1-.35,2.14,10.62,10.62,0,0,1-.46,1.53,5.25,5.25,0,0,1-1.65,2.09,8.15,8.15,0,0,1-5.19,1.55,7.26,7.26,0,0,1-4.89-1.56A5.32,5.32,0,0,1,674,591.5q0-.4,0-0.95t0.13-1.25l1.09-8.95h3.88l-1.14,9.3q-0.07.6-.11,1t0,0.75q0,2.62,3.08,2.62a3.19,3.19,0,0,0,2.46-.86,5.51,5.51,0,0,0,1.05-3l1.21-9.83h3.87Z" transform="translate(-83.35 -209.65)"/>
    <path class="cls-2" d="M700.52,567.22l-3.64,29.69H693l3.66-29.69h3.87Z" transform="translate(-83.35 -209.65)"/>
    <path class="cls-2" d="M709.84,567.22l-3.64,29.69h-3.88L706,567.22h3.87Z" transform="translate(-83.35 -209.65)"/>
    <path class="cls-2" d="M730,580.35l-15,26h-4.43l6.66-11.53-5.92-14.5h4.15l4.1,10.58,6-10.58H730Z" transform="translate(-83.35 -209.65)"/>
    <path class="cls-2" d="M734.78,595a2.16,2.16,0,0,1-.72,1.62,2.35,2.35,0,0,1-1.67.69,2.22,2.22,0,0,1-1.65-.7,2.37,2.37,0,0,1-.69-1.72,2.31,2.31,0,0,1,.63-1.65,2.18,2.18,0,0,1,1.6-.67,2.39,2.39,0,0,1,1.76.72A2.32,2.32,0,0,1,734.78,595Z" transform="translate(-83.35 -209.65)"/>
    <path class="cls-2" d="M745.89,595a2.16,2.16,0,0,1-.72,1.62,2.35,2.35,0,0,1-1.67.69,2.22,2.22,0,0,1-1.65-.7,2.37,2.37,0,0,1-.69-1.72,2.31,2.31,0,0,1,.63-1.65,2.18,2.18,0,0,1,1.6-.67,2.39,2.39,0,0,1,1.76.72A2.32,2.32,0,0,1,745.89,595Z" transform="translate(-83.35 -209.65)"/>
    <path class="cls-2" d="M757,595a2.16,2.16,0,0,1-.72,1.62,2.35,2.35,0,0,1-1.67.69,2.22,2.22,0,0,1-1.65-.7,2.37,2.37,0,0,1-.69-1.72,2.31,2.31,0,0,1,.63-1.65,2.18,2.18,0,0,1,1.6-.67,2.39,2.39,0,0,1,1.76.72A2.32,2.32,0,0,1,757,595Z" transform="translate(-83.35 -209.65)"/>
  </g>
</svg>
